<?xml version="1.0" standalone="no"?>
<!DOCTYPE svg PUBLIC "-//W3C//DTD SVG 20010904//EN"
 "http://www.w3.org/TR/2001/REC-SVG-20010904/DTD/svg10.dtd">
<svg version="1.0" xmlns="http://www.w3.org/2000/svg"
 width="500.000000pt" height="500.000000pt" viewBox="0 0 500.000000 500.000000"
 preserveAspectRatio="xMidYMid meet">
<metadata>
Created by potrace 1.14, written by Peter Selinger 2001-2017
</metadata>
<g transform="translate(0.000000,500.000000) scale(0.100000,-0.100000)"
fill="#000000" stroke="none">
<path d="M278 4816 c-44 -23 -90 -75 -105 -121 -6 -19 -9 -792 -9 -2205 l1
-2175 28 -47 c18 -31 44 -57 75 -75 l47 -28 2185 0 c2104 0 2186 1 2219 19 50
27 90 75 105 126 10 36 12 460 12 2205 l-1 2160 -23 47 c-22 44 -63 84 -107
103 -11 5 -990 9 -2203 10 l-2183 1 -41 -20z"/>
</g>
</svg>
